<mxfile host="app.diagrams.net" modified="2024-01-05T11:13:02.855Z" agent="Mozilla/5.0 (Windows NT 10.0; Win64; x64) AppleWebKit/537.36 (KHTML, like Gecko) Chrome/120.0.0.0 Safari/537.36" etag="svX3v_pEJjOTsOzog17h" version="22.1.16" type="google" pages="3">
  <diagram name="DFD контекстная" id="dSvYLGmpBt46TXQdXxlE">
    <mxGraphModel dx="1799" dy="990" grid="1" gridSize="10" guides="1" tooltips="1" connect="1" arrows="1" fold="1" page="1" pageScale="1" pageWidth="827" pageHeight="1169" math="0" shadow="0">
      <root>
        <mxCell id="0" />
        <mxCell id="1" parent="0" />
        <mxCell id="sAMt-BoYpplDLlfgnf9F-1" value="0" style="swimlane;childLayout=stackLayout;horizontal=1;startSize=30;horizontalStack=0;rounded=1;fontSize=14;fontStyle=0;strokeWidth=1;resizeParent=0;resizeLast=1;shadow=0;dashed=0;align=center;fillColor=#FFFFFF;" parent="1" vertex="1">
          <mxGeometry x="320" y="680" width="200" height="120" as="geometry" />
        </mxCell>
        <mxCell id="sAMt-BoYpplDLlfgnf9F-2" value="Приложение &quot;Stets Home&quot;" style="align=center;strokeColor=none;fillColor=none;spacingLeft=4;fontSize=12;verticalAlign=middle;resizable=0;rotatable=0;part=1;" parent="sAMt-BoYpplDLlfgnf9F-1" vertex="1">
          <mxGeometry y="30" width="200" height="90" as="geometry" />
        </mxCell>
        <mxCell id="sAMt-BoYpplDLlfgnf9F-14" style="edgeStyle=orthogonalEdgeStyle;rounded=0;orthogonalLoop=1;jettySize=auto;html=1;startArrow=none;startFill=0;" parent="1" edge="1">
          <mxGeometry relative="1" as="geometry">
            <mxPoint x="350" y="480" as="sourcePoint" />
            <mxPoint x="350" y="680" as="targetPoint" />
            <Array as="points">
              <mxPoint x="350" y="680" />
            </Array>
          </mxGeometry>
        </mxCell>
        <mxCell id="sAMt-BoYpplDLlfgnf9F-15" value="Данные &lt;br&gt;пользователя" style="edgeLabel;html=1;align=center;verticalAlign=middle;resizable=0;points=[];" parent="sAMt-BoYpplDLlfgnf9F-14" vertex="1" connectable="0">
          <mxGeometry x="-0.1767" relative="1" as="geometry">
            <mxPoint as="offset" />
          </mxGeometry>
        </mxCell>
        <mxCell id="sAMt-BoYpplDLlfgnf9F-16" style="edgeStyle=orthogonalEdgeStyle;rounded=0;orthogonalLoop=1;jettySize=auto;html=1;" parent="1" source="sAMt-BoYpplDLlfgnf9F-3" edge="1">
          <mxGeometry relative="1" as="geometry">
            <mxPoint x="320" y="700" as="targetPoint" />
            <Array as="points">
              <mxPoint x="300" y="470" />
              <mxPoint x="300" y="700" />
            </Array>
          </mxGeometry>
        </mxCell>
        <mxCell id="sAMt-BoYpplDLlfgnf9F-17" value="Запрос&lt;br&gt;создания&amp;nbsp;&lt;br&gt;Дом&amp;nbsp;" style="edgeLabel;html=1;align=center;verticalAlign=middle;resizable=0;points=[];" parent="sAMt-BoYpplDLlfgnf9F-16" vertex="1" connectable="0">
          <mxGeometry x="-0.0827" relative="1" as="geometry">
            <mxPoint y="-13" as="offset" />
          </mxGeometry>
        </mxCell>
        <mxCell id="sAMt-BoYpplDLlfgnf9F-18" style="edgeStyle=orthogonalEdgeStyle;rounded=0;orthogonalLoop=1;jettySize=auto;html=1;" parent="1" source="sAMt-BoYpplDLlfgnf9F-3" edge="1">
          <mxGeometry relative="1" as="geometry">
            <mxPoint x="320" y="760" as="targetPoint" />
            <Array as="points">
              <mxPoint x="240" y="460" />
              <mxPoint x="240" y="760" />
              <mxPoint x="320" y="760" />
            </Array>
          </mxGeometry>
        </mxCell>
        <mxCell id="sAMt-BoYpplDLlfgnf9F-19" value="Запрос&amp;nbsp;&lt;br&gt;создания&amp;nbsp;&lt;br&gt;комната" style="edgeLabel;html=1;align=center;verticalAlign=middle;resizable=0;points=[];" parent="sAMt-BoYpplDLlfgnf9F-18" vertex="1" connectable="0">
          <mxGeometry x="-0.0685" y="-1" relative="1" as="geometry">
            <mxPoint y="47" as="offset" />
          </mxGeometry>
        </mxCell>
        <mxCell id="sAMt-BoYpplDLlfgnf9F-22" style="edgeStyle=orthogonalEdgeStyle;rounded=0;orthogonalLoop=1;jettySize=auto;html=1;" parent="1" source="sAMt-BoYpplDLlfgnf9F-3" edge="1">
          <mxGeometry relative="1" as="geometry">
            <mxPoint x="520" y="760" as="targetPoint" />
            <Array as="points">
              <mxPoint x="600" y="460" />
              <mxPoint x="600" y="760" />
              <mxPoint x="520" y="760" />
            </Array>
          </mxGeometry>
        </mxCell>
        <mxCell id="sAMt-BoYpplDLlfgnf9F-23" value="Запрос &lt;br&gt;создания&amp;nbsp;&lt;br&gt;сценарии" style="edgeLabel;html=1;align=center;verticalAlign=middle;resizable=0;points=[];" parent="sAMt-BoYpplDLlfgnf9F-22" vertex="1" connectable="0">
          <mxGeometry x="0.1218" y="-3" relative="1" as="geometry">
            <mxPoint as="offset" />
          </mxGeometry>
        </mxCell>
        <mxCell id="sAMt-BoYpplDLlfgnf9F-3" value="Пользователь" style="html=1;whiteSpace=wrap;" parent="1" vertex="1">
          <mxGeometry x="320" y="440" width="190" height="40" as="geometry" />
        </mxCell>
        <mxCell id="sAMt-BoYpplDLlfgnf9F-7" style="edgeStyle=orthogonalEdgeStyle;rounded=0;orthogonalLoop=1;jettySize=auto;html=1;entryX=0.5;entryY=1;entryDx=0;entryDy=0;startArrow=classic;startFill=1;" parent="1" edge="1">
          <mxGeometry relative="1" as="geometry">
            <mxPoint x="450" y="1000" as="sourcePoint" />
            <mxPoint x="450" y="800" as="targetPoint" />
          </mxGeometry>
        </mxCell>
        <mxCell id="sAMt-BoYpplDLlfgnf9F-9" value="Статус&lt;br&gt;состояния&lt;br&gt;устройства" style="edgeLabel;html=1;align=center;verticalAlign=middle;resizable=0;points=[];rotation=0;" parent="sAMt-BoYpplDLlfgnf9F-7" vertex="1" connectable="0">
          <mxGeometry x="0.2" y="4" relative="1" as="geometry">
            <mxPoint x="4" y="50" as="offset" />
          </mxGeometry>
        </mxCell>
        <mxCell id="sAMt-BoYpplDLlfgnf9F-10" style="edgeStyle=orthogonalEdgeStyle;rounded=0;orthogonalLoop=1;jettySize=auto;html=1;entryX=0.5;entryY=1;entryDx=0;entryDy=0;" parent="1" edge="1">
          <mxGeometry relative="1" as="geometry">
            <mxPoint x="390.00000000000006" y="1000" as="sourcePoint" />
            <mxPoint x="390.00000000000006" y="800" as="targetPoint" />
          </mxGeometry>
        </mxCell>
        <mxCell id="sAMt-BoYpplDLlfgnf9F-11" value="Данные&amp;nbsp;&lt;br&gt;устройства" style="edgeLabel;html=1;align=center;verticalAlign=middle;resizable=0;points=[];" parent="sAMt-BoYpplDLlfgnf9F-10" vertex="1" connectable="0">
          <mxGeometry x="0.16" relative="1" as="geometry">
            <mxPoint y="-4" as="offset" />
          </mxGeometry>
        </mxCell>
        <mxCell id="sAMt-BoYpplDLlfgnf9F-6" value="Устройство Stets&amp;nbsp;" style="html=1;whiteSpace=wrap;" parent="1" vertex="1">
          <mxGeometry x="359.5" y="1000" width="121" height="40" as="geometry" />
        </mxCell>
        <mxCell id="sAMt-BoYpplDLlfgnf9F-20" style="edgeStyle=orthogonalEdgeStyle;rounded=0;orthogonalLoop=1;jettySize=auto;html=1;entryX=1.018;entryY=0.178;entryDx=0;entryDy=0;entryPerimeter=0;" parent="1" source="sAMt-BoYpplDLlfgnf9F-3" target="sAMt-BoYpplDLlfgnf9F-1" edge="1">
          <mxGeometry relative="1" as="geometry">
            <Array as="points">
              <mxPoint x="540" y="470" />
              <mxPoint x="540" y="701" />
            </Array>
          </mxGeometry>
        </mxCell>
        <mxCell id="sAMt-BoYpplDLlfgnf9F-21" value="Запрос&lt;br&gt;регистрации&amp;nbsp;&lt;br&gt;устройства&lt;br&gt;Stets" style="edgeLabel;html=1;align=center;verticalAlign=middle;resizable=0;points=[];" parent="sAMt-BoYpplDLlfgnf9F-20" vertex="1" connectable="0">
          <mxGeometry x="-0.2107" y="-1" relative="1" as="geometry">
            <mxPoint y="12" as="offset" />
          </mxGeometry>
        </mxCell>
        <mxCell id="sAMt-BoYpplDLlfgnf9F-25" style="edgeStyle=orthogonalEdgeStyle;rounded=0;orthogonalLoop=1;jettySize=auto;html=1;entryX=1;entryY=1;entryDx=0;entryDy=0;" parent="1" source="sAMt-BoYpplDLlfgnf9F-1" edge="1">
          <mxGeometry relative="1" as="geometry">
            <Array as="points">
              <mxPoint x="490" y="576" />
              <mxPoint x="491" y="576" />
            </Array>
            <mxPoint x="480.5" y="670" as="sourcePoint" />
            <mxPoint x="490.5" y="470" as="targetPoint" />
          </mxGeometry>
        </mxCell>
        <mxCell id="sAMt-BoYpplDLlfgnf9F-26" value="Статус&lt;br&gt;состояния&lt;br&gt;устройства" style="edgeLabel;html=1;align=center;verticalAlign=middle;resizable=0;points=[];rotation=0;" parent="1" vertex="1" connectable="0">
          <mxGeometry x="490" y="630" as="geometry" />
        </mxCell>
        <mxCell id="8wQOteEF7tu0bxyf5MGk-2" style="edgeStyle=orthogonalEdgeStyle;rounded=0;orthogonalLoop=1;jettySize=auto;html=1;entryX=1;entryY=1;entryDx=0;entryDy=0;fillColor=#f8cecc;strokeColor=#b85450;" parent="1" edge="1">
          <mxGeometry relative="1" as="geometry">
            <Array as="points">
              <mxPoint x="419.58" y="630" />
              <mxPoint x="419.58" y="630" />
            </Array>
            <mxPoint x="419.58" y="680" as="sourcePoint" />
            <mxPoint x="419.58" y="480" as="targetPoint" />
          </mxGeometry>
        </mxCell>
        <mxCell id="8wQOteEF7tu0bxyf5MGk-3" value="&lt;font color=&quot;#ff0000&quot;&gt;Статус комнаты, &lt;br&gt;сценария&lt;/font&gt;" style="edgeLabel;html=1;align=center;verticalAlign=middle;resizable=0;points=[];" parent="8wQOteEF7tu0bxyf5MGk-2" vertex="1" connectable="0">
          <mxGeometry x="-0.1429" y="2" relative="1" as="geometry">
            <mxPoint y="6" as="offset" />
          </mxGeometry>
        </mxCell>
      </root>
    </mxGraphModel>
  </diagram>
  <diagram id="UJplZWQsdJ7pvsgbwW2D" name="DFD логическая">
    <mxGraphModel dx="1679" dy="2093" grid="1" gridSize="10" guides="1" tooltips="1" connect="1" arrows="1" fold="1" page="1" pageScale="1" pageWidth="827" pageHeight="1169" math="0" shadow="0">
      <root>
        <mxCell id="0" />
        <mxCell id="1" parent="0" />
        <mxCell id="uj4LiNzeWa4DPUPUHqSy-1" value="&lt;font face=&quot;Verdana&quot;&gt;D1&lt;/font&gt;" style="html=1;dashed=0;whitespace=wrap;shape=mxgraph.dfd.dataStoreID;align=left;spacingLeft=3;points=[[0,0],[0.5,0],[1,0],[0,0.5],[1,0.5],[0,1],[0.5,1],[1,1]];fontSize=10;" parent="1" vertex="1">
          <mxGeometry x="180" y="-357.5" width="100" height="30" as="geometry" />
        </mxCell>
        <mxCell id="uj4LiNzeWa4DPUPUHqSy-2" value="&lt;span style=&quot;font-size: 10px;&quot;&gt;&lt;font face=&quot;Verdana&quot;&gt;Пользователи&lt;/font&gt;&lt;/span&gt;" style="text;html=1;strokeColor=none;fillColor=none;align=left;verticalAlign=middle;whiteSpace=wrap;rounded=0;" parent="1" vertex="1">
          <mxGeometry x="210" y="-352.5" width="70" height="20" as="geometry" />
        </mxCell>
        <mxCell id="uj4LiNzeWa4DPUPUHqSy-3" value="" style="edgeStyle=elbowEdgeStyle;rounded=0;orthogonalLoop=1;jettySize=auto;elbow=vertical;html=1;" parent="1" source="uj4LiNzeWa4DPUPUHqSy-4" target="uj4LiNzeWa4DPUPUHqSy-5" edge="1">
          <mxGeometry relative="1" as="geometry" />
        </mxCell>
        <mxCell id="uj4LiNzeWa4DPUPUHqSy-4" value="&lt;font face=&quot;Verdana&quot;&gt;D2&lt;/font&gt;" style="html=1;dashed=0;whitespace=wrap;shape=mxgraph.dfd.dataStoreID;align=left;spacingLeft=3;points=[[0,0],[0.5,0],[1,0],[0,0.5],[1,0.5],[0,1],[0.5,1],[1,1]];fontSize=10;" parent="1" vertex="1">
          <mxGeometry x="520" y="-357.5" width="100" height="30" as="geometry" />
        </mxCell>
        <mxCell id="uj4LiNzeWa4DPUPUHqSy-5" value="&lt;span style=&quot;font-size: 10px;&quot;&gt;&lt;font face=&quot;Verdana&quot;&gt;Дома&lt;/font&gt;&lt;/span&gt;" style="text;html=1;strokeColor=none;fillColor=none;align=left;verticalAlign=middle;whiteSpace=wrap;rounded=0;" parent="1" vertex="1">
          <mxGeometry x="556" y="-355" width="60" height="20" as="geometry" />
        </mxCell>
        <mxCell id="uj4LiNzeWa4DPUPUHqSy-6" value="&lt;font face=&quot;Verdana&quot;&gt;D3&lt;/font&gt;" style="html=1;dashed=0;whitespace=wrap;shape=mxgraph.dfd.dataStoreID;align=left;spacingLeft=3;points=[[0,0],[0.5,0],[1,0],[0,0.5],[1,0.5],[0,1],[0.5,1],[1,1]];fontSize=10;" parent="1" vertex="1">
          <mxGeometry x="910" y="-360" width="100" height="30" as="geometry" />
        </mxCell>
        <mxCell id="bgeQWBz1-utToE3HMXM0-29" style="edgeStyle=orthogonalEdgeStyle;rounded=0;orthogonalLoop=1;jettySize=auto;html=1;entryX=0.75;entryY=1;entryDx=0;entryDy=0;startArrow=classic;startFill=1;" parent="1" edge="1">
          <mxGeometry relative="1" as="geometry">
            <mxPoint x="959.33" y="-360" as="sourcePoint" />
            <mxPoint x="959.33" y="-670" as="targetPoint" />
            <Array as="points">
              <mxPoint x="959.33" y="-430" />
              <mxPoint x="959.33" y="-430" />
            </Array>
          </mxGeometry>
        </mxCell>
        <mxCell id="bgeQWBz1-utToE3HMXM0-50" value="Данные&amp;nbsp;&lt;br&gt;комнаты" style="edgeLabel;html=1;align=center;verticalAlign=middle;resizable=0;points=[];" parent="bgeQWBz1-utToE3HMXM0-29" connectable="0" vertex="1">
          <mxGeometry x="0.1659" y="-5" relative="1" as="geometry">
            <mxPoint y="-1" as="offset" />
          </mxGeometry>
        </mxCell>
        <mxCell id="uj4LiNzeWa4DPUPUHqSy-7" value="&lt;span style=&quot;font-size: 10px;&quot;&gt;&lt;font face=&quot;Verdana&quot;&gt;Комнаты&lt;/font&gt;&lt;/span&gt;" style="text;html=1;strokeColor=none;fillColor=none;align=left;verticalAlign=middle;whiteSpace=wrap;rounded=0;" parent="1" vertex="1">
          <mxGeometry x="945" y="-355" width="60" height="20" as="geometry" />
        </mxCell>
        <mxCell id="uj4LiNzeWa4DPUPUHqSy-10" value="&lt;font face=&quot;Verdana&quot;&gt;D5&lt;/font&gt;" style="html=1;dashed=0;whitespace=wrap;shape=mxgraph.dfd.dataStoreID;align=left;spacingLeft=3;points=[[0,0],[0.5,0],[1,0],[0,0.5],[1,0.5],[0,1],[0.5,1],[1,1]];fontSize=10;" parent="1" vertex="1">
          <mxGeometry x="1620" y="-365" width="100" height="30" as="geometry" />
        </mxCell>
        <mxCell id="uj4LiNzeWa4DPUPUHqSy-12" value="&lt;span style=&quot;font-size: 10px;&quot;&gt;&lt;font face=&quot;Verdana&quot;&gt;Сценарии&lt;/font&gt;&lt;/span&gt;" style="text;html=1;strokeColor=none;fillColor=none;align=left;verticalAlign=middle;whiteSpace=wrap;rounded=0;" parent="1" vertex="1">
          <mxGeometry x="1660" y="-360" width="60" height="20" as="geometry" />
        </mxCell>
        <mxCell id="bgeQWBz1-utToE3HMXM0-15" style="edgeStyle=orthogonalEdgeStyle;rounded=0;orthogonalLoop=1;jettySize=auto;html=1;entryX=0.25;entryY=0;entryDx=0;entryDy=0;" parent="1" source="uj4LiNzeWa4DPUPUHqSy-13" target="6LoeztgdlrVUXU_sCrZd-31" edge="1">
          <mxGeometry relative="1" as="geometry">
            <Array as="points">
              <mxPoint x="200" y="-1130" />
            </Array>
          </mxGeometry>
        </mxCell>
        <mxCell id="bgeQWBz1-utToE3HMXM0-43" value="Данные&lt;br&gt;пользователя" style="edgeLabel;html=1;align=center;verticalAlign=middle;resizable=0;points=[];" parent="bgeQWBz1-utToE3HMXM0-15" connectable="0" vertex="1">
          <mxGeometry x="0.5769" relative="1" as="geometry">
            <mxPoint as="offset" />
          </mxGeometry>
        </mxCell>
        <mxCell id="bgeQWBz1-utToE3HMXM0-18" style="edgeStyle=orthogonalEdgeStyle;rounded=0;orthogonalLoop=1;jettySize=auto;html=1;entryX=0.75;entryY=0;entryDx=0;entryDy=0;" parent="1" source="uj4LiNzeWa4DPUPUHqSy-13" target="bgeQWBz1-utToE3HMXM0-4" edge="1">
          <mxGeometry relative="1" as="geometry">
            <Array as="points">
              <mxPoint x="640" y="-1050" />
            </Array>
          </mxGeometry>
        </mxCell>
        <mxCell id="bgeQWBz1-utToE3HMXM0-20" style="edgeStyle=orthogonalEdgeStyle;rounded=0;orthogonalLoop=1;jettySize=auto;html=1;entryX=0.75;entryY=0;entryDx=0;entryDy=0;" parent="1" source="uj4LiNzeWa4DPUPUHqSy-13" target="bgeQWBz1-utToE3HMXM0-5" edge="1">
          <mxGeometry relative="1" as="geometry">
            <Array as="points">
              <mxPoint x="1000" y="-980" />
              <mxPoint x="1000" y="-980" />
            </Array>
          </mxGeometry>
        </mxCell>
        <mxCell id="bgeQWBz1-utToE3HMXM0-21" style="edgeStyle=orthogonalEdgeStyle;rounded=0;orthogonalLoop=1;jettySize=auto;html=1;entryX=0.75;entryY=0;entryDx=0;entryDy=0;" parent="1" target="bgeQWBz1-utToE3HMXM0-7" edge="1">
          <mxGeometry relative="1" as="geometry">
            <mxPoint x="1080" y="-1130" as="sourcePoint" />
            <mxPoint x="1719.9999999999995" y="-880" as="targetPoint" />
          </mxGeometry>
        </mxCell>
        <mxCell id="bgeQWBz1-utToE3HMXM0-61" value="Данные&lt;br&gt;сценария" style="edgeLabel;html=1;align=center;verticalAlign=middle;resizable=0;points=[];" parent="bgeQWBz1-utToE3HMXM0-21" connectable="0" vertex="1">
          <mxGeometry x="0.6683" y="1" relative="1" as="geometry">
            <mxPoint x="-1" y="35" as="offset" />
          </mxGeometry>
        </mxCell>
        <mxCell id="bgeQWBz1-utToE3HMXM0-24" value="Данные&lt;br&gt;устройтсва" style="edgeStyle=orthogonalEdgeStyle;rounded=0;orthogonalLoop=1;jettySize=auto;html=1;entryX=0.25;entryY=0;entryDx=0;entryDy=0;" parent="1" source="uj4LiNzeWa4DPUPUHqSy-13" target="bgeQWBz1-utToE3HMXM0-6" edge="1">
          <mxGeometry x="0.4161" relative="1" as="geometry">
            <Array as="points">
              <mxPoint x="1281" y="-1050" />
            </Array>
            <mxPoint as="offset" />
          </mxGeometry>
        </mxCell>
        <mxCell id="uj4LiNzeWa4DPUPUHqSy-13" value="&lt;font face=&quot;Verdana&quot;&gt;Пользователь&lt;/font&gt;" style="html=1;dashed=0;whitespace=wrap;fontStyle=1;fontSize=25;" parent="1" vertex="1">
          <mxGeometry x="840" y="-1140" width="240" height="100" as="geometry" />
        </mxCell>
        <mxCell id="6LoeztgdlrVUXU_sCrZd-31" value="1" style="swimlane;childLayout=stackLayout;horizontal=1;startSize=40;horizontalStack=0;rounded=1;fontSize=14;fontStyle=1;strokeWidth=1;resizeParent=0;resizeLast=1;shadow=0;dashed=0;align=center;fillColor=#FFFFFF;" parent="1" vertex="1">
          <mxGeometry x="160" y="-840" width="160" height="170" as="geometry" />
        </mxCell>
        <mxCell id="bgeQWBz1-utToE3HMXM0-42" style="edgeStyle=orthogonalEdgeStyle;rounded=0;orthogonalLoop=1;jettySize=auto;html=1;" parent="6LoeztgdlrVUXU_sCrZd-31" source="bgeQWBz1-utToE3HMXM0-10" edge="1">
          <mxGeometry relative="1" as="geometry">
            <mxPoint x="100" y="480" as="targetPoint" />
            <Array as="points">
              <mxPoint x="100" y="480" />
              <mxPoint x="100" y="480" />
            </Array>
          </mxGeometry>
        </mxCell>
        <mxCell id="bgeQWBz1-utToE3HMXM0-46" value="Статус&lt;br&gt;авторизации" style="edgeLabel;html=1;align=center;verticalAlign=middle;resizable=0;points=[];" parent="bgeQWBz1-utToE3HMXM0-42" connectable="0" vertex="1">
          <mxGeometry x="0.3499" y="-1" relative="1" as="geometry">
            <mxPoint as="offset" />
          </mxGeometry>
        </mxCell>
        <mxCell id="bgeQWBz1-utToE3HMXM0-10" value="Управлять&lt;br&gt;&lt;br&gt;учётной записью" style="text;html=1;align=center;verticalAlign=middle;resizable=0;points=[];autosize=1;strokeColor=none;fillColor=none;" parent="6LoeztgdlrVUXU_sCrZd-31" vertex="1">
          <mxGeometry y="40" width="160" height="130" as="geometry" />
        </mxCell>
        <mxCell id="OVApDyANbP2DMBvOnunP-23" value="&lt;font size=&quot;1&quot; style=&quot;&quot;&gt;&lt;b style=&quot;font-size: 20px;&quot;&gt;Устройство Stets&amp;nbsp;&lt;/b&gt;&lt;/font&gt;" style="rounded=0;whiteSpace=wrap;html=1;" parent="1" vertex="1">
          <mxGeometry x="1310" y="-250" width="210" height="60" as="geometry" />
        </mxCell>
        <mxCell id="bgeQWBz1-utToE3HMXM0-71" style="edgeStyle=orthogonalEdgeStyle;rounded=0;orthogonalLoop=1;jettySize=auto;html=1;startArrow=classic;startFill=1;" parent="1" source="bgeQWBz1-utToE3HMXM0-13" edge="1">
          <mxGeometry relative="1" as="geometry">
            <Array as="points">
              <mxPoint x="1360" y="-250" />
            </Array>
            <mxPoint x="1440.0000000000005" y="-680" as="sourcePoint" />
            <mxPoint x="1360" y="-250" as="targetPoint" />
          </mxGeometry>
        </mxCell>
        <mxCell id="bgeQWBz1-utToE3HMXM0-72" value="Статус&lt;br&gt;устройства" style="edgeLabel;html=1;align=center;verticalAlign=middle;resizable=0;points=[];" parent="bgeQWBz1-utToE3HMXM0-71" connectable="0" vertex="1">
          <mxGeometry x="-0.1308" y="-1" relative="1" as="geometry">
            <mxPoint x="1" y="-32" as="offset" />
          </mxGeometry>
        </mxCell>
        <mxCell id="uj4LiNzeWa4DPUPUHqSy-8" value="&lt;font face=&quot;Verdana&quot;&gt;D4&lt;/font&gt;" style="html=1;dashed=0;whitespace=wrap;shape=mxgraph.dfd.dataStoreID;align=left;spacingLeft=3;points=[[0,0],[0.5,0],[1,0],[0,0.5],[1,0.5],[0,1],[0.5,1],[1,1]];fontSize=10;" parent="1" vertex="1">
          <mxGeometry x="1220" y="-355.74" width="100" height="30" as="geometry" />
        </mxCell>
        <mxCell id="bgeQWBz1-utToE3HMXM0-4" value="2" style="swimlane;childLayout=stackLayout;horizontal=1;startSize=40;horizontalStack=0;rounded=1;fontSize=14;fontStyle=1;strokeWidth=1;resizeParent=0;resizeLast=1;shadow=0;dashed=0;align=center;fillColor=#FFFFFF;" parent="1" vertex="1">
          <mxGeometry x="520" y="-840" width="160" height="170" as="geometry" />
        </mxCell>
        <mxCell id="bgeQWBz1-utToE3HMXM0-11" value="Управлять&lt;br&gt;&lt;br&gt;домом" style="text;html=1;align=center;verticalAlign=middle;resizable=0;points=[];autosize=1;strokeColor=none;fillColor=none;" parent="bgeQWBz1-utToE3HMXM0-4" vertex="1">
          <mxGeometry y="40" width="160" height="130" as="geometry" />
        </mxCell>
        <mxCell id="bgeQWBz1-utToE3HMXM0-19" style="edgeStyle=orthogonalEdgeStyle;rounded=0;orthogonalLoop=1;jettySize=auto;html=1;entryX=0.5;entryY=1;entryDx=0;entryDy=0;" parent="1" edge="1">
          <mxGeometry relative="1" as="geometry">
            <mxPoint x="920" y="-840" as="sourcePoint" />
            <mxPoint x="920" y="-1040" as="targetPoint" />
          </mxGeometry>
        </mxCell>
        <mxCell id="bgeQWBz1-utToE3HMXM0-59" value="Данные&lt;br&gt;комнаты" style="edgeLabel;html=1;align=center;verticalAlign=middle;resizable=0;points=[];" parent="bgeQWBz1-utToE3HMXM0-19" connectable="0" vertex="1">
          <mxGeometry x="0.2952" y="4" relative="1" as="geometry">
            <mxPoint x="84" as="offset" />
          </mxGeometry>
        </mxCell>
        <mxCell id="bgeQWBz1-utToE3HMXM0-63" value="Статус&lt;br&gt;комнаты" style="edgeLabel;html=1;align=center;verticalAlign=middle;resizable=0;points=[];" parent="bgeQWBz1-utToE3HMXM0-19" connectable="0" vertex="1">
          <mxGeometry x="0.29" relative="1" as="geometry">
            <mxPoint as="offset" />
          </mxGeometry>
        </mxCell>
        <mxCell id="bgeQWBz1-utToE3HMXM0-5" value="3" style="swimlane;childLayout=stackLayout;horizontal=1;startSize=40;horizontalStack=0;rounded=1;fontSize=14;fontStyle=1;strokeWidth=1;resizeParent=0;resizeLast=1;shadow=0;dashed=0;align=center;fillColor=#FFFFFF;" parent="1" vertex="1">
          <mxGeometry x="880" y="-840" width="160" height="170" as="geometry" />
        </mxCell>
        <mxCell id="bgeQWBz1-utToE3HMXM0-6" value="4" style="swimlane;childLayout=stackLayout;horizontal=1;startSize=40;horizontalStack=0;rounded=1;fontSize=14;fontStyle=1;strokeWidth=1;resizeParent=0;resizeLast=1;shadow=0;dashed=0;align=center;fillColor=#FFFFFF;" parent="1" vertex="1">
          <mxGeometry x="1241" y="-840" width="160" height="170" as="geometry" />
        </mxCell>
        <mxCell id="bgeQWBz1-utToE3HMXM0-77" value="&lt;span style=&quot;color: rgb(0, 0, 0); font-family: Helvetica; font-size: 11px; font-style: normal; font-variant-ligatures: normal; font-variant-caps: normal; font-weight: 400; letter-spacing: normal; orphans: 2; text-align: center; text-indent: 0px; text-transform: none; widows: 2; word-spacing: 0px; -webkit-text-stroke-width: 0px; background-color: rgb(255, 255, 255); text-decoration-thickness: initial; text-decoration-style: initial; text-decoration-color: initial; float: none; display: inline !important;&quot;&gt;Данные&lt;/span&gt;&lt;br style=&quot;border-color: var(--border-color); color: rgb(0, 0, 0); font-family: Helvetica; font-size: 11px; font-style: normal; font-variant-ligatures: normal; font-variant-caps: normal; font-weight: 400; letter-spacing: normal; orphans: 2; text-align: center; text-indent: 0px; text-transform: none; widows: 2; word-spacing: 0px; -webkit-text-stroke-width: 0px; text-decoration-thickness: initial; text-decoration-style: initial; text-decoration-color: initial;&quot;&gt;&lt;span style=&quot;color: rgb(0, 0, 0); font-family: Helvetica; font-size: 11px; font-style: normal; font-variant-ligatures: normal; font-variant-caps: normal; font-weight: 400; letter-spacing: normal; orphans: 2; text-align: center; text-indent: 0px; text-transform: none; widows: 2; word-spacing: 0px; -webkit-text-stroke-width: 0px; background-color: rgb(255, 255, 255); text-decoration-thickness: initial; text-decoration-style: initial; text-decoration-color: initial; float: none; display: inline !important;&quot;&gt;устройтсва&lt;/span&gt;" style="edgeStyle=orthogonalEdgeStyle;rounded=0;orthogonalLoop=1;jettySize=auto;html=1;" parent="bgeQWBz1-utToE3HMXM0-6" source="bgeQWBz1-utToE3HMXM0-13" edge="1">
          <mxGeometry relative="1" as="geometry">
            <mxPoint x="-201" y="105" as="targetPoint" />
          </mxGeometry>
        </mxCell>
        <mxCell id="bgeQWBz1-utToE3HMXM0-13" value="Управлять&lt;br&gt;&lt;br&gt;устройством" style="text;html=1;align=center;verticalAlign=middle;resizable=0;points=[];autosize=1;strokeColor=none;fillColor=none;" parent="bgeQWBz1-utToE3HMXM0-6" vertex="1">
          <mxGeometry y="40" width="160" height="130" as="geometry" />
        </mxCell>
        <mxCell id="bgeQWBz1-utToE3HMXM0-7" value="5" style="swimlane;childLayout=stackLayout;horizontal=1;startSize=40;horizontalStack=0;rounded=1;fontSize=14;fontStyle=1;strokeWidth=1;resizeParent=0;resizeLast=1;shadow=0;dashed=0;align=center;fillColor=#FFFFFF;" parent="1" vertex="1">
          <mxGeometry x="1600" y="-840" width="160" height="170" as="geometry" />
        </mxCell>
        <mxCell id="bgeQWBz1-utToE3HMXM0-14" value="Управлять&amp;nbsp;&lt;br&gt;&lt;br&gt;сценарием" style="text;html=1;align=center;verticalAlign=middle;resizable=0;points=[];autosize=1;strokeColor=none;fillColor=none;" parent="bgeQWBz1-utToE3HMXM0-7" vertex="1">
          <mxGeometry y="40" width="160" height="130" as="geometry" />
        </mxCell>
        <mxCell id="bgeQWBz1-utToE3HMXM0-12" value="Управлять&lt;br&gt;&lt;br&gt;комнатами" style="text;html=1;align=center;verticalAlign=middle;resizable=0;points=[];autosize=1;strokeColor=none;fillColor=none;" parent="1" vertex="1">
          <mxGeometry x="920" y="-777" width="80" height="60" as="geometry" />
        </mxCell>
        <mxCell id="bgeQWBz1-utToE3HMXM0-16" style="edgeStyle=orthogonalEdgeStyle;rounded=0;orthogonalLoop=1;jettySize=auto;html=1;exitX=0.75;exitY=0;exitDx=0;exitDy=0;" parent="1" source="6LoeztgdlrVUXU_sCrZd-31" target="uj4LiNzeWa4DPUPUHqSy-13" edge="1">
          <mxGeometry relative="1" as="geometry">
            <mxPoint x="890" y="-1060" as="targetPoint" />
            <Array as="points">
              <mxPoint x="280" y="-1110" />
            </Array>
          </mxGeometry>
        </mxCell>
        <mxCell id="bgeQWBz1-utToE3HMXM0-47" value="Статус&lt;br style=&quot;border-color: var(--border-color);&quot;&gt;регистрации /&lt;br style=&quot;border-color: var(--border-color);&quot;&gt;&amp;nbsp;авторизации /&lt;br style=&quot;border-color: var(--border-color);&quot;&gt;&amp;nbsp;редактирования&lt;br style=&quot;border-color: var(--border-color);&quot;&gt;данных /&lt;br style=&quot;border-color: var(--border-color);&quot;&gt;&amp;nbsp;восстановления&lt;br style=&quot;border-color: var(--border-color);&quot;&gt;пароля&amp;nbsp;" style="edgeLabel;html=1;align=center;verticalAlign=middle;resizable=0;points=[];" parent="bgeQWBz1-utToE3HMXM0-16" connectable="0" vertex="1">
          <mxGeometry x="-0.7482" y="2" relative="1" as="geometry">
            <mxPoint as="offset" />
          </mxGeometry>
        </mxCell>
        <mxCell id="bgeQWBz1-utToE3HMXM0-17" style="edgeStyle=orthogonalEdgeStyle;rounded=0;orthogonalLoop=1;jettySize=auto;html=1;" parent="1" target="uj4LiNzeWa4DPUPUHqSy-13" edge="1">
          <mxGeometry relative="1" as="geometry">
            <mxPoint x="560" y="-840" as="sourcePoint" />
            <Array as="points">
              <mxPoint x="560" y="-1080" />
            </Array>
          </mxGeometry>
        </mxCell>
        <mxCell id="bgeQWBz1-utToE3HMXM0-48" value="Данные&lt;br&gt;дома" style="edgeLabel;html=1;align=center;verticalAlign=middle;resizable=0;points=[];" parent="bgeQWBz1-utToE3HMXM0-17" connectable="0" vertex="1">
          <mxGeometry x="-0.4981" relative="1" as="geometry">
            <mxPoint x="80" y="-10" as="offset" />
          </mxGeometry>
        </mxCell>
        <mxCell id="bgeQWBz1-utToE3HMXM0-62" value="Статус&lt;br&gt;дома" style="edgeLabel;html=1;align=center;verticalAlign=middle;resizable=0;points=[];" parent="bgeQWBz1-utToE3HMXM0-17" connectable="0" vertex="1">
          <mxGeometry x="-0.45" y="-1" relative="1" as="geometry">
            <mxPoint as="offset" />
          </mxGeometry>
        </mxCell>
        <mxCell id="bgeQWBz1-utToE3HMXM0-22" style="edgeStyle=orthogonalEdgeStyle;rounded=0;orthogonalLoop=1;jettySize=auto;html=1;entryX=1.001;entryY=0.318;entryDx=0;entryDy=0;entryPerimeter=0;" parent="1" source="bgeQWBz1-utToE3HMXM0-7" target="uj4LiNzeWa4DPUPUHqSy-13" edge="1">
          <mxGeometry relative="1" as="geometry">
            <Array as="points">
              <mxPoint x="1640" y="-1108" />
            </Array>
          </mxGeometry>
        </mxCell>
        <mxCell id="bgeQWBz1-utToE3HMXM0-65" value="Статус&lt;br&gt;сценария" style="edgeLabel;html=1;align=center;verticalAlign=middle;resizable=0;points=[];" parent="bgeQWBz1-utToE3HMXM0-22" connectable="0" vertex="1">
          <mxGeometry x="-0.6877" y="1" relative="1" as="geometry">
            <mxPoint y="9" as="offset" />
          </mxGeometry>
        </mxCell>
        <mxCell id="bgeQWBz1-utToE3HMXM0-23" style="edgeStyle=orthogonalEdgeStyle;rounded=0;orthogonalLoop=1;jettySize=auto;html=1;entryX=1.004;entryY=0.61;entryDx=0;entryDy=0;entryPerimeter=0;" parent="1" source="bgeQWBz1-utToE3HMXM0-6" target="uj4LiNzeWa4DPUPUHqSy-13" edge="1">
          <mxGeometry relative="1" as="geometry">
            <Array as="points">
              <mxPoint x="1360" y="-1079" />
            </Array>
          </mxGeometry>
        </mxCell>
        <mxCell id="bgeQWBz1-utToE3HMXM0-64" value="Статус&amp;nbsp;&lt;br&gt;устройства" style="edgeLabel;html=1;align=center;verticalAlign=middle;resizable=0;points=[];" parent="bgeQWBz1-utToE3HMXM0-23" connectable="0" vertex="1">
          <mxGeometry x="-0.5715" y="-1" relative="1" as="geometry">
            <mxPoint y="-9" as="offset" />
          </mxGeometry>
        </mxCell>
        <mxCell id="bgeQWBz1-utToE3HMXM0-35" style="edgeStyle=orthogonalEdgeStyle;rounded=0;orthogonalLoop=1;jettySize=auto;html=1;entryX=0.63;entryY=0.987;entryDx=0;entryDy=0;entryPerimeter=0;startArrow=classic;startFill=1;" parent="1" edge="1">
          <mxGeometry relative="1" as="geometry">
            <mxPoint x="1269.3300000000004" y="-353.24" as="sourcePoint" />
            <mxPoint x="1270.13" y="-669.9300000000001" as="targetPoint" />
          </mxGeometry>
        </mxCell>
        <mxCell id="bgeQWBz1-utToE3HMXM0-51" value="Данные&lt;br&gt;устройства" style="edgeLabel;html=1;align=center;verticalAlign=middle;resizable=0;points=[];" parent="bgeQWBz1-utToE3HMXM0-35" connectable="0" vertex="1">
          <mxGeometry x="0.0869" y="5" relative="1" as="geometry">
            <mxPoint x="4" as="offset" />
          </mxGeometry>
        </mxCell>
        <mxCell id="bgeQWBz1-utToE3HMXM0-38" style="edgeStyle=orthogonalEdgeStyle;rounded=0;orthogonalLoop=1;jettySize=auto;html=1;exitX=0.681;exitY=0.033;exitDx=0;exitDy=0;exitPerimeter=0;startArrow=classic;startFill=1;" parent="1" edge="1">
          <mxGeometry relative="1" as="geometry">
            <mxPoint x="1678.97" y="-365.07" as="sourcePoint" />
            <mxPoint x="1680.97" y="-671.07" as="targetPoint" />
            <Array as="points">
              <mxPoint x="1679" y="-670" />
              <mxPoint x="1681" y="-670" />
            </Array>
          </mxGeometry>
        </mxCell>
        <mxCell id="bgeQWBz1-utToE3HMXM0-52" value="Данные&lt;br&gt;сценария" style="edgeLabel;html=1;align=center;verticalAlign=middle;resizable=0;points=[];" parent="bgeQWBz1-utToE3HMXM0-38" connectable="0" vertex="1">
          <mxGeometry x="0.1769" y="-1" relative="1" as="geometry">
            <mxPoint as="offset" />
          </mxGeometry>
        </mxCell>
        <mxCell id="bgeQWBz1-utToE3HMXM0-40" style="edgeStyle=orthogonalEdgeStyle;rounded=0;orthogonalLoop=1;jettySize=auto;html=1;entryX=0.224;entryY=0.009;entryDx=0;entryDy=0;entryPerimeter=0;startArrow=classic;startFill=1;" parent="1" edge="1">
          <mxGeometry relative="1" as="geometry">
            <mxPoint x="580.0666666666667" y="-667.77" as="sourcePoint" />
            <mxPoint x="580.0000000000001" y="-354.9999999999998" as="targetPoint" />
            <Array as="points">
              <mxPoint x="579.6" y="-511.77" />
            </Array>
          </mxGeometry>
        </mxCell>
        <mxCell id="bgeQWBz1-utToE3HMXM0-49" value="Данные&amp;nbsp;&lt;br&gt;дома" style="edgeLabel;html=1;align=center;verticalAlign=middle;resizable=0;points=[];" parent="bgeQWBz1-utToE3HMXM0-40" connectable="0" vertex="1">
          <mxGeometry x="0.097" y="-4" relative="1" as="geometry">
            <mxPoint as="offset" />
          </mxGeometry>
        </mxCell>
        <mxCell id="bgeQWBz1-utToE3HMXM0-41" style="edgeStyle=orthogonalEdgeStyle;rounded=0;orthogonalLoop=1;jettySize=auto;html=1;entryX=0.216;entryY=1.024;entryDx=0;entryDy=0;entryPerimeter=0;" parent="1" source="uj4LiNzeWa4DPUPUHqSy-1" target="bgeQWBz1-utToE3HMXM0-10" edge="1">
          <mxGeometry relative="1" as="geometry">
            <Array as="points">
              <mxPoint x="195" y="-514" />
            </Array>
          </mxGeometry>
        </mxCell>
        <mxCell id="bgeQWBz1-utToE3HMXM0-44" value="Данные&amp;nbsp;&lt;br&gt;пользователя" style="edgeLabel;html=1;align=center;verticalAlign=middle;resizable=0;points=[];" parent="bgeQWBz1-utToE3HMXM0-41" connectable="0" vertex="1">
          <mxGeometry x="0.0969" relative="1" as="geometry">
            <mxPoint as="offset" />
          </mxGeometry>
        </mxCell>
        <mxCell id="bgeQWBz1-utToE3HMXM0-53" value="Управлять&amp;nbsp;&lt;br&gt;&lt;br&gt;сценарием" style="text;html=1;align=center;verticalAlign=middle;resizable=0;points=[];autosize=1;strokeColor=none;fillColor=none;" parent="1" vertex="1">
          <mxGeometry x="1600" y="-799.93" width="160" height="130" as="geometry" />
        </mxCell>
        <mxCell id="bgeQWBz1-utToE3HMXM0-54" style="edgeStyle=orthogonalEdgeStyle;rounded=0;orthogonalLoop=1;jettySize=auto;html=1;exitX=0.681;exitY=0.033;exitDx=0;exitDy=0;exitPerimeter=0;startArrow=classic;startFill=1;" parent="1" edge="1">
          <mxGeometry relative="1" as="geometry">
            <mxPoint x="1678.97" y="-365" as="sourcePoint" />
            <mxPoint x="1680.97" y="-671" as="targetPoint" />
            <Array as="points">
              <mxPoint x="1679" y="-669.93" />
              <mxPoint x="1681" y="-669.93" />
            </Array>
          </mxGeometry>
        </mxCell>
        <mxCell id="bgeQWBz1-utToE3HMXM0-55" value="Данные&lt;br&gt;сценария" style="edgeLabel;html=1;align=center;verticalAlign=middle;resizable=0;points=[];" parent="bgeQWBz1-utToE3HMXM0-54" connectable="0" vertex="1">
          <mxGeometry x="0.1769" y="-1" relative="1" as="geometry">
            <mxPoint as="offset" />
          </mxGeometry>
        </mxCell>
        <mxCell id="bgeQWBz1-utToE3HMXM0-66" style="edgeStyle=orthogonalEdgeStyle;rounded=0;orthogonalLoop=1;jettySize=auto;html=1;" parent="1" edge="1">
          <mxGeometry relative="1" as="geometry">
            <Array as="points">
              <mxPoint x="1496.12" y="-250" />
              <mxPoint x="1496.12" y="-697" />
            </Array>
            <mxPoint x="1450.12" y="-250.00000000000023" as="sourcePoint" />
            <mxPoint x="1410" y="-698" as="targetPoint" />
          </mxGeometry>
        </mxCell>
        <mxCell id="bgeQWBz1-utToE3HMXM0-67" value="Данные&lt;br&gt;устройства" style="edgeLabel;html=1;align=center;verticalAlign=middle;resizable=0;points=[];" parent="bgeQWBz1-utToE3HMXM0-66" connectable="0" vertex="1">
          <mxGeometry x="0.0875" y="-4" relative="1" as="geometry">
            <mxPoint y="23" as="offset" />
          </mxGeometry>
        </mxCell>
        <mxCell id="bgeQWBz1-utToE3HMXM0-74" style="edgeStyle=orthogonalEdgeStyle;rounded=0;orthogonalLoop=1;jettySize=auto;html=1;entryX=1;entryY=0.25;entryDx=0;entryDy=0;startArrow=classic;startFill=1;" parent="1" source="bgeQWBz1-utToE3HMXM0-13" target="bgeQWBz1-utToE3HMXM0-5" edge="1">
          <mxGeometry relative="1" as="geometry">
            <Array as="points">
              <mxPoint x="1140" y="-797" />
            </Array>
          </mxGeometry>
        </mxCell>
        <mxCell id="bgeQWBz1-utToE3HMXM0-83" value="Статус&lt;br&gt;устройства" style="edgeLabel;html=1;align=center;verticalAlign=middle;resizable=0;points=[];" parent="bgeQWBz1-utToE3HMXM0-74" connectable="0" vertex="1">
          <mxGeometry x="0.0546" y="2" relative="1" as="geometry">
            <mxPoint as="offset" />
          </mxGeometry>
        </mxCell>
        <mxCell id="bgeQWBz1-utToE3HMXM0-75" style="edgeStyle=orthogonalEdgeStyle;rounded=0;orthogonalLoop=1;jettySize=auto;html=1;entryX=-0.011;entryY=0.627;entryDx=0;entryDy=0;entryPerimeter=0;" parent="1" edge="1">
          <mxGeometry relative="1" as="geometry">
            <mxPoint x="1402.76" y="-735.04" as="sourcePoint" />
            <mxPoint x="1600.0000000000002" y="-735.4599999999998" as="targetPoint" />
            <Array as="points">
              <mxPoint x="1451.76" y="-735.04" />
              <mxPoint x="1451.76" y="-735.04" />
            </Array>
          </mxGeometry>
        </mxCell>
        <mxCell id="bgeQWBz1-utToE3HMXM0-82" value="Данные&lt;br style=&quot;border-color: var(--border-color); font-size: 12px; text-align: left; background-color: rgb(251, 251, 251);&quot;&gt;&lt;span style=&quot;font-size: 12px; text-align: left; background-color: rgb(251, 251, 251);&quot;&gt;устройтсва&lt;/span&gt;" style="edgeLabel;html=1;align=center;verticalAlign=middle;resizable=0;points=[];" parent="bgeQWBz1-utToE3HMXM0-75" connectable="0" vertex="1">
          <mxGeometry x="-0.0795" y="3" relative="1" as="geometry">
            <mxPoint as="offset" />
          </mxGeometry>
        </mxCell>
        <mxCell id="bgeQWBz1-utToE3HMXM0-76" style="edgeStyle=orthogonalEdgeStyle;rounded=0;orthogonalLoop=1;jettySize=auto;html=1;entryX=1.013;entryY=0.039;entryDx=0;entryDy=0;entryPerimeter=0;startArrow=classic;startFill=1;" parent="1" edge="1">
          <mxGeometry relative="1" as="geometry">
            <mxPoint x="1600" y="-799.9273684210525" as="sourcePoint" />
            <mxPoint x="1403.08" y="-799.9100000000001" as="targetPoint" />
            <Array as="points">
              <mxPoint x="1550" y="-799.98" />
              <mxPoint x="1550" y="-799.98" />
            </Array>
          </mxGeometry>
        </mxCell>
        <mxCell id="bgeQWBz1-utToE3HMXM0-84" value="Статус&lt;br&gt;устройства" style="edgeLabel;html=1;align=center;verticalAlign=middle;resizable=0;points=[];" parent="bgeQWBz1-utToE3HMXM0-76" connectable="0" vertex="1">
          <mxGeometry x="0.0342" y="1" relative="1" as="geometry">
            <mxPoint as="offset" />
          </mxGeometry>
        </mxCell>
        <mxCell id="v8dSak7Xz119t0jZZrjE-4" value="&lt;span style=&quot;font-size: 10px;&quot;&gt;&lt;font face=&quot;Verdana&quot;&gt;Устройства&lt;/font&gt;&lt;/span&gt;" style="text;html=1;strokeColor=none;fillColor=none;align=left;verticalAlign=middle;whiteSpace=wrap;rounded=0;" vertex="1" parent="1">
          <mxGeometry x="1250" y="-350.74" width="60" height="20" as="geometry" />
        </mxCell>
      </root>
    </mxGraphModel>
  </diagram>
  <diagram id="6JgDO71OGT6CH-s6Q1zc" name="ER модель">
    <mxGraphModel dx="2086" dy="1862" grid="1" gridSize="10" guides="1" tooltips="1" connect="1" arrows="1" fold="1" page="1" pageScale="1" pageWidth="827" pageHeight="1169" math="0" shadow="0">
      <root>
        <mxCell id="0" />
        <mxCell id="1" parent="0" />
        <mxCell id="HA9UK0TsW8duzRsbHw92-13" value="Пользователь" style="swimlane;childLayout=stackLayout;horizontal=1;startSize=50;horizontalStack=0;rounded=1;fontSize=14;fontStyle=0;strokeWidth=2;resizeParent=0;resizeLast=1;shadow=0;dashed=0;align=center;arcSize=4;whiteSpace=wrap;html=1;" parent="1" vertex="1">
          <mxGeometry x="-180" y="220" width="160" height="156" as="geometry" />
        </mxCell>
        <mxCell id="HA9UK0TsW8duzRsbHw92-14" value="*Email почта&lt;br&gt;Имя пользователя&lt;br&gt;Пароль" style="align=left;strokeColor=none;fillColor=none;spacingLeft=4;fontSize=12;verticalAlign=top;resizable=0;rotatable=0;part=1;html=1;" parent="HA9UK0TsW8duzRsbHw92-13" vertex="1">
          <mxGeometry y="50" width="160" height="106" as="geometry" />
        </mxCell>
        <mxCell id="HA9UK0TsW8duzRsbHw92-15" value="Дом" style="swimlane;childLayout=stackLayout;horizontal=1;startSize=50;horizontalStack=0;rounded=1;fontSize=14;fontStyle=0;strokeWidth=2;resizeParent=0;resizeLast=1;shadow=0;dashed=0;align=center;arcSize=4;whiteSpace=wrap;html=1;" parent="1" vertex="1">
          <mxGeometry x="360" y="250" width="160" height="156" as="geometry" />
        </mxCell>
        <mxCell id="HA9UK0TsW8duzRsbHw92-16" value="*Название дома" style="align=left;strokeColor=none;fillColor=none;spacingLeft=4;fontSize=12;verticalAlign=top;resizable=0;rotatable=0;part=1;html=1;" parent="HA9UK0TsW8duzRsbHw92-15" vertex="1">
          <mxGeometry y="50" width="160" height="106" as="geometry" />
        </mxCell>
        <mxCell id="HA9UK0TsW8duzRsbHw92-17" value="Комната" style="swimlane;childLayout=stackLayout;horizontal=1;startSize=50;horizontalStack=0;rounded=1;fontSize=14;fontStyle=0;strokeWidth=2;resizeParent=0;resizeLast=1;shadow=0;dashed=0;align=center;arcSize=4;whiteSpace=wrap;html=1;" parent="1" vertex="1">
          <mxGeometry x="820" y="220" width="160" height="156" as="geometry" />
        </mxCell>
        <mxCell id="HA9UK0TsW8duzRsbHw92-18" value="*Номер комнаты&lt;br&gt;Название комнаты" style="align=left;strokeColor=none;fillColor=none;spacingLeft=4;fontSize=12;verticalAlign=top;resizable=0;rotatable=0;part=1;html=1;" parent="HA9UK0TsW8duzRsbHw92-17" vertex="1">
          <mxGeometry y="50" width="160" height="106" as="geometry" />
        </mxCell>
        <mxCell id="HA9UK0TsW8duzRsbHw92-19" value="Устройство" style="swimlane;childLayout=stackLayout;horizontal=1;startSize=50;horizontalStack=0;rounded=1;fontSize=14;fontStyle=0;strokeWidth=2;resizeParent=0;resizeLast=1;shadow=0;dashed=0;align=center;arcSize=4;whiteSpace=wrap;html=1;" parent="1" vertex="1">
          <mxGeometry x="600" y="520" width="160" height="156" as="geometry" />
        </mxCell>
        <mxCell id="HA9UK0TsW8duzRsbHw92-20" value="*Код устройства&lt;br&gt;Название устройства&lt;br&gt;Режим энергосбережения&lt;br&gt;Статус" style="align=left;strokeColor=none;fillColor=none;spacingLeft=4;fontSize=12;verticalAlign=top;resizable=0;rotatable=0;part=1;html=1;" parent="HA9UK0TsW8duzRsbHw92-19" vertex="1">
          <mxGeometry y="50" width="160" height="106" as="geometry" />
        </mxCell>
        <mxCell id="HA9UK0TsW8duzRsbHw92-21" value="Сценарий" style="swimlane;childLayout=stackLayout;horizontal=1;startSize=50;horizontalStack=0;rounded=1;fontSize=14;fontStyle=0;strokeWidth=2;resizeParent=0;resizeLast=1;shadow=0;dashed=0;align=center;arcSize=4;whiteSpace=wrap;html=1;" parent="1" vertex="1">
          <mxGeometry x="120" y="850" width="160" height="156" as="geometry" />
        </mxCell>
        <mxCell id="HA9UK0TsW8duzRsbHw92-22" value="*Номер сценария&lt;br&gt;Название сценария" style="align=left;strokeColor=none;fillColor=none;spacingLeft=4;fontSize=12;verticalAlign=top;resizable=0;rotatable=0;part=1;html=1;" parent="HA9UK0TsW8duzRsbHw92-21" vertex="1">
          <mxGeometry y="50" width="160" height="106" as="geometry" />
        </mxCell>
        <mxCell id="HA9UK0TsW8duzRsbHw92-25" value="Дом пользователя" style="swimlane;childLayout=stackLayout;horizontal=1;startSize=50;horizontalStack=0;rounded=1;fontSize=14;fontStyle=0;strokeWidth=2;resizeParent=0;resizeLast=1;shadow=0;dashed=0;align=center;arcSize=4;whiteSpace=wrap;html=1;" parent="1" vertex="1">
          <mxGeometry x="90" y="440" width="160" height="156" as="geometry" />
        </mxCell>
        <mxCell id="HA9UK0TsW8duzRsbHw92-26" value="*Название дома&lt;br&gt;*Email почта" style="align=left;strokeColor=none;fillColor=none;spacingLeft=4;fontSize=12;verticalAlign=top;resizable=0;rotatable=0;part=1;html=1;" parent="HA9UK0TsW8duzRsbHw92-25" vertex="1">
          <mxGeometry y="50" width="160" height="106" as="geometry" />
        </mxCell>
        <mxCell id="HA9UK0TsW8duzRsbHw92-30" value="Тип комнаты" style="swimlane;childLayout=stackLayout;horizontal=1;startSize=50;horizontalStack=0;rounded=1;fontSize=14;fontStyle=0;strokeWidth=2;resizeParent=0;resizeLast=1;shadow=0;dashed=0;align=center;arcSize=4;whiteSpace=wrap;html=1;" parent="1" vertex="1">
          <mxGeometry x="557" y="-80" width="160" height="156" as="geometry" />
        </mxCell>
        <mxCell id="HA9UK0TsW8duzRsbHw92-31" value="*Номер типа комнаты&lt;br&gt;Название типа комнаты&lt;br&gt;Иконка" style="align=left;strokeColor=none;fillColor=none;spacingLeft=4;fontSize=12;verticalAlign=top;resizable=0;rotatable=0;part=1;html=1;" parent="HA9UK0TsW8duzRsbHw92-30" vertex="1">
          <mxGeometry y="50" width="160" height="106" as="geometry" />
        </mxCell>
        <mxCell id="HA9UK0TsW8duzRsbHw92-33" value="Тип устройства" style="swimlane;childLayout=stackLayout;horizontal=1;startSize=50;horizontalStack=0;rounded=1;fontSize=14;fontStyle=0;strokeWidth=2;resizeParent=0;resizeLast=1;shadow=0;dashed=0;align=center;arcSize=4;whiteSpace=wrap;html=1;" parent="1" vertex="1">
          <mxGeometry x="1010" y="429" width="160" height="156" as="geometry" />
        </mxCell>
        <mxCell id="HA9UK0TsW8duzRsbHw92-34" value="*Номер типа устройства&lt;br&gt;Название типа устройства" style="align=left;strokeColor=none;fillColor=none;spacingLeft=4;fontSize=12;verticalAlign=top;resizable=0;rotatable=0;part=1;html=1;" parent="HA9UK0TsW8duzRsbHw92-33" vertex="1">
          <mxGeometry y="50" width="160" height="106" as="geometry" />
        </mxCell>
        <mxCell id="HA9UK0TsW8duzRsbHw92-38" value="Дни недели в сценарии" style="swimlane;childLayout=stackLayout;horizontal=1;startSize=50;horizontalStack=0;rounded=1;fontSize=14;fontStyle=0;strokeWidth=2;resizeParent=0;resizeLast=1;shadow=0;dashed=0;align=center;arcSize=4;whiteSpace=wrap;html=1;" parent="1" vertex="1">
          <mxGeometry x="-180" y="1080" width="160" height="156" as="geometry" />
        </mxCell>
        <mxCell id="HA9UK0TsW8duzRsbHw92-39" value="*Номер сценария&lt;br style=&quot;border-color: var(--border-color);&quot;&gt;*Номер дня недели" style="align=left;strokeColor=none;fillColor=none;spacingLeft=4;fontSize=12;verticalAlign=top;resizable=0;rotatable=0;part=1;html=1;" parent="HA9UK0TsW8duzRsbHw92-38" vertex="1">
          <mxGeometry y="50" width="160" height="106" as="geometry" />
        </mxCell>
        <mxCell id="HA9UK0TsW8duzRsbHw92-44" value="Состав&amp;nbsp;&lt;br&gt;сценария" style="swimlane;childLayout=stackLayout;horizontal=1;startSize=50;horizontalStack=0;rounded=1;fontSize=14;fontStyle=0;strokeWidth=2;resizeParent=0;resizeLast=1;shadow=0;dashed=0;align=center;arcSize=4;whiteSpace=wrap;html=1;" parent="1" vertex="1">
          <mxGeometry x="414" y="760" width="160" height="180" as="geometry" />
        </mxCell>
        <mxCell id="HA9UK0TsW8duzRsbHw92-45" value="*Номер сценария&lt;br style=&quot;border-color: var(--border-color);&quot;&gt;*Код устройства&lt;br&gt;Время начала сценария&lt;br style=&quot;border-color: var(--border-color);&quot;&gt;Время окончания сценария" style="align=left;strokeColor=none;fillColor=none;spacingLeft=4;fontSize=12;verticalAlign=top;resizable=0;rotatable=0;part=1;html=1;" parent="HA9UK0TsW8duzRsbHw92-44" vertex="1">
          <mxGeometry y="50" width="160" height="130" as="geometry" />
        </mxCell>
        <mxCell id="HA9UK0TsW8duzRsbHw92-48" value="" style="edgeStyle=entityRelationEdgeStyle;fontSize=12;html=1;endArrow=ERoneToMany;startArrow=ERmandOne;rounded=0;exitX=1;exitY=0.5;exitDx=0;exitDy=0;endFill=0;" parent="1" source="HA9UK0TsW8duzRsbHw92-14" edge="1">
          <mxGeometry width="100" height="100" relative="1" as="geometry">
            <mxPoint x="-100" y="390" as="sourcePoint" />
            <mxPoint x="80" y="520" as="targetPoint" />
          </mxGeometry>
        </mxCell>
        <mxCell id="HA9UK0TsW8duzRsbHw92-49" value="Управляет" style="edgeLabel;html=1;align=center;verticalAlign=middle;resizable=0;points=[];" parent="HA9UK0TsW8duzRsbHw92-48" vertex="1" connectable="0">
          <mxGeometry x="-0.1097" y="2" relative="1" as="geometry">
            <mxPoint x="-1" as="offset" />
          </mxGeometry>
        </mxCell>
        <mxCell id="HA9UK0TsW8duzRsbHw92-54" value="" style="edgeStyle=entityRelationEdgeStyle;fontSize=12;html=1;endArrow=ERmandOne;startArrow=ERoneToMany;rounded=0;exitX=1;exitY=0.25;exitDx=0;exitDy=0;startFill=0;endFill=0;entryX=-0.016;entryY=0.108;entryDx=0;entryDy=0;entryPerimeter=0;" parent="1" source="HA9UK0TsW8duzRsbHw92-26" target="HA9UK0TsW8duzRsbHw92-16" edge="1">
          <mxGeometry width="100" height="100" relative="1" as="geometry">
            <mxPoint x="270" y="350" as="sourcePoint" />
            <mxPoint x="350" y="320" as="targetPoint" />
          </mxGeometry>
        </mxCell>
        <mxCell id="HA9UK0TsW8duzRsbHw92-55" value="Имеет" style="edgeLabel;html=1;align=center;verticalAlign=middle;resizable=0;points=[];" parent="HA9UK0TsW8duzRsbHw92-54" vertex="1" connectable="0">
          <mxGeometry x="-0.1097" y="2" relative="1" as="geometry">
            <mxPoint x="-1" as="offset" />
          </mxGeometry>
        </mxCell>
        <mxCell id="HA9UK0TsW8duzRsbHw92-57" value="" style="edgeStyle=entityRelationEdgeStyle;fontSize=12;html=1;endArrow=ERzeroToMany;startArrow=ERmandOne;rounded=0;exitX=1.006;exitY=0.354;exitDx=0;exitDy=0;startFill=0;endFill=0;exitPerimeter=0;entryX=-0.016;entryY=0.295;entryDx=0;entryDy=0;entryPerimeter=0;" parent="1" target="HA9UK0TsW8duzRsbHw92-18" edge="1">
          <mxGeometry width="100" height="100" relative="1" as="geometry">
            <mxPoint x="519.9999999999995" y="300.00400000000013" as="sourcePoint" />
            <mxPoint x="810" y="300" as="targetPoint" />
          </mxGeometry>
        </mxCell>
        <mxCell id="HA9UK0TsW8duzRsbHw92-58" value="Имеет" style="edgeLabel;html=1;align=center;verticalAlign=middle;resizable=0;points=[];" parent="HA9UK0TsW8duzRsbHw92-57" vertex="1" connectable="0">
          <mxGeometry x="-0.1097" y="2" relative="1" as="geometry">
            <mxPoint x="8" y="-1" as="offset" />
          </mxGeometry>
        </mxCell>
        <mxCell id="HA9UK0TsW8duzRsbHw92-59" value="" style="edgeStyle=entityRelationEdgeStyle;fontSize=12;html=1;endArrow=ERzeroToMany;startArrow=ERmandOne;rounded=0;exitX=1.019;exitY=0.669;exitDx=0;exitDy=0;startFill=0;endFill=0;exitPerimeter=0;entryX=0;entryY=0;entryDx=0;entryDy=0;" parent="1" target="HA9UK0TsW8duzRsbHw92-20" edge="1">
          <mxGeometry width="100" height="100" relative="1" as="geometry">
            <mxPoint x="520" y="330.0040000000002" as="sourcePoint" />
            <mxPoint x="853.9600000000005" y="330.08599999999984" as="targetPoint" />
          </mxGeometry>
        </mxCell>
        <mxCell id="HA9UK0TsW8duzRsbHw92-60" value="Содержит" style="edgeLabel;html=1;align=center;verticalAlign=middle;resizable=0;points=[];" parent="HA9UK0TsW8duzRsbHw92-59" vertex="1" connectable="0">
          <mxGeometry x="-0.1097" y="2" relative="1" as="geometry">
            <mxPoint x="8" y="-1" as="offset" />
          </mxGeometry>
        </mxCell>
        <mxCell id="HA9UK0TsW8duzRsbHw92-61" value="" style="edgeStyle=entityRelationEdgeStyle;fontSize=12;html=1;endArrow=ERzeroToOne;startArrow=ERzeroToMany;rounded=0;exitX=1;exitY=0;exitDx=0;exitDy=0;startFill=0;endFill=0;entryX=0;entryY=0.5;entryDx=0;entryDy=0;" parent="1" source="HA9UK0TsW8duzRsbHw92-20" target="HA9UK0TsW8duzRsbHw92-18" edge="1">
          <mxGeometry width="100" height="100" relative="1" as="geometry">
            <mxPoint x="720" y="420" as="sourcePoint" />
            <mxPoint x="1017.0000000000005" y="420.99599999999987" as="targetPoint" />
          </mxGeometry>
        </mxCell>
        <mxCell id="HA9UK0TsW8duzRsbHw92-62" value="Содержит" style="edgeLabel;html=1;align=center;verticalAlign=middle;resizable=0;points=[];" parent="HA9UK0TsW8duzRsbHw92-61" vertex="1" connectable="0">
          <mxGeometry x="-0.1097" y="2" relative="1" as="geometry">
            <mxPoint x="8" y="-33" as="offset" />
          </mxGeometry>
        </mxCell>
        <mxCell id="HA9UK0TsW8duzRsbHw92-63" value="" style="edgeStyle=entityRelationEdgeStyle;fontSize=12;html=1;endArrow=ERzeroToMany;startArrow=ERmandOne;rounded=0;startFill=0;endFill=0;entryX=-0.026;entryY=0.096;entryDx=0;entryDy=0;entryPerimeter=0;" parent="1" target="HA9UK0TsW8duzRsbHw92-17" edge="1">
          <mxGeometry width="100" height="100" relative="1" as="geometry">
            <mxPoint x="717" y="10" as="sourcePoint" />
            <mxPoint x="827" y="140" as="targetPoint" />
            <Array as="points">
              <mxPoint x="787" y="10" />
            </Array>
          </mxGeometry>
        </mxCell>
        <mxCell id="HA9UK0TsW8duzRsbHw92-64" value="Имеет" style="edgeLabel;html=1;align=center;verticalAlign=middle;resizable=0;points=[];" parent="HA9UK0TsW8duzRsbHw92-63" vertex="1" connectable="0">
          <mxGeometry x="-0.1097" y="2" relative="1" as="geometry">
            <mxPoint x="8" y="-1" as="offset" />
          </mxGeometry>
        </mxCell>
        <mxCell id="HA9UK0TsW8duzRsbHw92-65" value="" style="edgeStyle=entityRelationEdgeStyle;fontSize=12;html=1;endArrow=ERzeroToMany;startArrow=ERmandOne;rounded=0;startFill=0;endFill=0;entryX=0.989;entryY=0.146;entryDx=0;entryDy=0;entryPerimeter=0;exitX=0;exitY=0.25;exitDx=0;exitDy=0;" parent="1" source="HA9UK0TsW8duzRsbHw92-34" target="HA9UK0TsW8duzRsbHw92-20" edge="1">
          <mxGeometry width="100" height="100" relative="1" as="geometry">
            <mxPoint x="301" y="785" as="sourcePoint" />
            <mxPoint x="600" y="620" as="targetPoint" />
            <Array as="points">
              <mxPoint x="571" y="395" />
            </Array>
          </mxGeometry>
        </mxCell>
        <mxCell id="HA9UK0TsW8duzRsbHw92-66" value="Имеет" style="edgeLabel;html=1;align=center;verticalAlign=middle;resizable=0;points=[];" parent="HA9UK0TsW8duzRsbHw92-65" vertex="1" connectable="0">
          <mxGeometry x="-0.1097" y="2" relative="1" as="geometry">
            <mxPoint x="8" y="-1" as="offset" />
          </mxGeometry>
        </mxCell>
        <mxCell id="HA9UK0TsW8duzRsbHw92-71" value="" style="edgeStyle=entityRelationEdgeStyle;fontSize=12;html=1;endArrow=ERzeroToMany;startArrow=ERmandOne;rounded=0;startFill=0;endFill=0;entryX=1.034;entryY=0.143;entryDx=0;entryDy=0;entryPerimeter=0;exitX=0;exitY=0.75;exitDx=0;exitDy=0;" parent="1" source="HA9UK0TsW8duzRsbHw92-20" target="HA9UK0TsW8duzRsbHw92-44" edge="1">
          <mxGeometry width="100" height="100" relative="1" as="geometry">
            <mxPoint x="500" y="630" as="sourcePoint" />
            <mxPoint x="920" y="333" as="targetPoint" />
            <Array as="points">
              <mxPoint x="579" y="700" />
              <mxPoint x="580" y="623" />
              <mxPoint x="780" y="750" />
              <mxPoint x="780" y="740" />
            </Array>
          </mxGeometry>
        </mxCell>
        <mxCell id="HA9UK0TsW8duzRsbHw92-72" value="Содержит" style="edgeLabel;html=1;align=center;verticalAlign=middle;resizable=0;points=[];" parent="HA9UK0TsW8duzRsbHw92-71" vertex="1" connectable="0">
          <mxGeometry x="-0.1097" y="2" relative="1" as="geometry">
            <mxPoint x="23" y="14" as="offset" />
          </mxGeometry>
        </mxCell>
        <mxCell id="HA9UK0TsW8duzRsbHw92-75" value="" style="edgeStyle=entityRelationEdgeStyle;fontSize=12;html=1;endArrow=ERmandOne;startArrow=ERzeroToMany;rounded=0;startFill=0;endFill=0;" parent="1" source="HA9UK0TsW8duzRsbHw92-45" target="HA9UK0TsW8duzRsbHw92-22" edge="1">
          <mxGeometry width="100" height="100" relative="1" as="geometry">
            <mxPoint x="1190" y="820" as="sourcePoint" />
            <mxPoint x="1090" y="860" as="targetPoint" />
            <Array as="points">
              <mxPoint x="1200" y="810" />
              <mxPoint x="1000" y="1032" />
            </Array>
          </mxGeometry>
        </mxCell>
        <mxCell id="HA9UK0TsW8duzRsbHw92-76" value="Содержит" style="edgeLabel;html=1;align=center;verticalAlign=middle;resizable=0;points=[];" parent="HA9UK0TsW8duzRsbHw92-75" vertex="1" connectable="0">
          <mxGeometry x="-0.1097" y="2" relative="1" as="geometry">
            <mxPoint x="-385" y="664" as="offset" />
          </mxGeometry>
        </mxCell>
        <mxCell id="lYlikhuCj-nbC2D8bNb2-28" value="Состоит" style="edgeLabel;html=1;align=center;verticalAlign=middle;resizable=0;points=[];" parent="HA9UK0TsW8duzRsbHw92-75" connectable="0" vertex="1">
          <mxGeometry x="-0.081" y="-3" relative="1" as="geometry">
            <mxPoint x="1" as="offset" />
          </mxGeometry>
        </mxCell>
        <mxCell id="HA9UK0TsW8duzRsbHw92-85" value="" style="edgeStyle=entityRelationEdgeStyle;fontSize=12;html=1;endArrow=ERmandOne;startArrow=ERzeroToMany;rounded=0;exitX=1.021;exitY=0.191;exitDx=0;exitDy=0;startFill=0;endFill=0;exitPerimeter=0;entryX=0;entryY=0.75;entryDx=0;entryDy=0;" parent="1" source="HA9UK0TsW8duzRsbHw92-21" target="HA9UK0TsW8duzRsbHw92-16" edge="1">
          <mxGeometry width="100" height="100" relative="1" as="geometry">
            <mxPoint x="-130" y="690" as="sourcePoint" />
            <mxPoint x="440" y="410" as="targetPoint" />
            <Array as="points">
              <mxPoint x="290" y="880" />
              <mxPoint x="430" y="430" />
            </Array>
          </mxGeometry>
        </mxCell>
        <mxCell id="HA9UK0TsW8duzRsbHw92-86" value="Имеет" style="edgeLabel;html=1;align=center;verticalAlign=middle;resizable=0;points=[];" parent="HA9UK0TsW8duzRsbHw92-85" vertex="1" connectable="0">
          <mxGeometry x="-0.1097" y="2" relative="1" as="geometry">
            <mxPoint x="-1" as="offset" />
          </mxGeometry>
        </mxCell>
        <mxCell id="lYlikhuCj-nbC2D8bNb2-9" value="Дни недели" style="swimlane;childLayout=stackLayout;horizontal=1;startSize=50;horizontalStack=0;rounded=1;fontSize=14;fontStyle=0;strokeWidth=2;resizeParent=0;resizeLast=1;shadow=0;dashed=0;align=center;arcSize=4;whiteSpace=wrap;html=1;" parent="1" vertex="1">
          <mxGeometry x="-510" y="1080" width="160" height="156" as="geometry" />
        </mxCell>
        <mxCell id="lYlikhuCj-nbC2D8bNb2-10" value="*Номер дня недели&lt;br&gt;Название дня недели" style="align=left;strokeColor=none;fillColor=none;spacingLeft=4;fontSize=12;verticalAlign=top;resizable=0;rotatable=0;part=1;html=1;" parent="lYlikhuCj-nbC2D8bNb2-9" vertex="1">
          <mxGeometry y="50" width="160" height="106" as="geometry" />
        </mxCell>
        <mxCell id="lYlikhuCj-nbC2D8bNb2-13" value="" style="edgeStyle=entityRelationEdgeStyle;fontSize=12;html=1;endArrow=ERoneToMany;startArrow=ERmandOne;rounded=0;startFill=0;endFill=0;" parent="1" source="HA9UK0TsW8duzRsbHw92-22" target="HA9UK0TsW8duzRsbHw92-38" edge="1">
          <mxGeometry width="100" height="100" relative="1" as="geometry">
            <mxPoint x="204" y="1050" as="sourcePoint" />
            <mxPoint x="100" y="1150" as="targetPoint" />
            <Array as="points">
              <mxPoint x="990" y="985" />
              <mxPoint x="790" y="1207" />
              <mxPoint x="130" y="1130" />
              <mxPoint x="120" y="1130" />
              <mxPoint x="60" y="1150" />
              <mxPoint x="80" y="1120" />
            </Array>
          </mxGeometry>
        </mxCell>
        <mxCell id="lYlikhuCj-nbC2D8bNb2-14" value="Содержит" style="edgeLabel;html=1;align=center;verticalAlign=middle;resizable=0;points=[];" parent="lYlikhuCj-nbC2D8bNb2-13" connectable="0" vertex="1">
          <mxGeometry x="-0.1097" y="2" relative="1" as="geometry">
            <mxPoint x="-385" y="664" as="offset" />
          </mxGeometry>
        </mxCell>
        <mxCell id="lYlikhuCj-nbC2D8bNb2-27" value="Включает" style="edgeLabel;html=1;align=center;verticalAlign=middle;resizable=0;points=[];" parent="lYlikhuCj-nbC2D8bNb2-13" connectable="0" vertex="1">
          <mxGeometry x="-0.0006" y="2" relative="1" as="geometry">
            <mxPoint as="offset" />
          </mxGeometry>
        </mxCell>
        <mxCell id="lYlikhuCj-nbC2D8bNb2-20" value="" style="edgeStyle=entityRelationEdgeStyle;fontSize=12;html=1;endArrow=ERmandOne;startArrow=ERzeroToMany;rounded=0;startFill=0;endFill=0;exitX=0;exitY=0.25;exitDx=0;exitDy=0;" parent="1" source="HA9UK0TsW8duzRsbHw92-39" target="lYlikhuCj-nbC2D8bNb2-10" edge="1">
          <mxGeometry width="100" height="100" relative="1" as="geometry">
            <mxPoint x="-180" y="980" as="sourcePoint" />
            <mxPoint x="-350" y="1170" as="targetPoint" />
            <Array as="points">
              <mxPoint x="690" y="1012" />
              <mxPoint x="490" y="1234" />
              <mxPoint x="-170" y="1157" />
              <mxPoint x="-320" y="1170" />
              <mxPoint x="-180" y="1157" />
              <mxPoint x="-240" y="1177" />
              <mxPoint x="-220" y="1147" />
            </Array>
          </mxGeometry>
        </mxCell>
        <mxCell id="lYlikhuCj-nbC2D8bNb2-21" value="Содержит" style="edgeLabel;html=1;align=center;verticalAlign=middle;resizable=0;points=[];" parent="lYlikhuCj-nbC2D8bNb2-20" connectable="0" vertex="1">
          <mxGeometry x="-0.1097" y="2" relative="1" as="geometry">
            <mxPoint x="-385" y="664" as="offset" />
          </mxGeometry>
        </mxCell>
        <mxCell id="lYlikhuCj-nbC2D8bNb2-26" value="Содержит" style="edgeLabel;html=1;align=center;verticalAlign=middle;resizable=0;points=[];" parent="lYlikhuCj-nbC2D8bNb2-20" connectable="0" vertex="1">
          <mxGeometry x="0.1266" y="-2" relative="1" as="geometry">
            <mxPoint as="offset" />
          </mxGeometry>
        </mxCell>
      </root>
    </mxGraphModel>
  </diagram>
</mxfile>
